<?xml version="1.0" standalone="no"?>
<!DOCTYPE svg PUBLIC "-//W3C//DTD SVG 20010904//EN"
 "http://www.w3.org/TR/2001/REC-SVG-20010904/DTD/svg10.dtd">
<svg version="1.0" xmlns="http://www.w3.org/2000/svg"
 width="48.000000pt" height="48.000000pt" viewBox="0 0 48.000000 48.000000"
 preserveAspectRatio="xMidYMid meet">

<g transform="translate(0.000000,48.000000) scale(0.100000,-0.100000)"
fill="#fff" stroke="none">
<path d="M260 325 c0 -3 15 -19 33 -35 l32 -29 -57 -1 c-52 0 -59 2 -72 28
l-15 27 -7 -23 c-6 -21 -11 -22 -49 -16 -25 3 -51 1 -62 -5 -17 -10 -17 -10 0
-11 26 0 11 -20 -29 -36 -27 -11 -34 -20 -34 -42 0 -32 16 -52 43 -52 10 0 25
-7 33 -15 19 -19 39 -19 58 0 21 21 201 21 222 0 19 -19 39 -19 58 0 8 8 21
15 29 15 23 0 38 26 31 54 -4 16 -13 26 -25 26 -10 0 -24 8 -31 18 -7 10 -24
22 -38 25 -14 3 -44 22 -67 42 -39 33 -53 41 -53 30z m-132 -178 c4 -20 -25
-34 -40 -19 -15 15 -1 44 19 40 10 -2 19 -11 21 -21z m280 0 c4 -20 -25 -34
-40 -19 -15 15 -1 44 19 40 10 -2 19 -11 21 -21z"/>
</g>
</svg>
